<svg width="933" height="524" viewBox="0 0 933 524" fill="none" xmlns="http://www.w3.org/2000/svg">
<g clip-path="url(#clip0)">
<path d="M869.802 493.494C869.55 502.932 867.969 512.287 865.108 521.284C865.044 521.493 864.974 521.698 864.905 521.907H847.387C847.406 521.72 847.425 521.511 847.443 521.284C848.611 507.85 841.938 427.061 833.886 413.078C834.592 414.213 871.161 450.807 869.802 493.494Z" fill="#F1F1F1"/>
<path d="M868.488 521.284C868.341 521.493 868.189 521.702 868.033 521.907H854.891C854.99 521.729 855.106 521.521 855.239 521.284C857.41 517.364 863.836 505.644 869.801 493.494C876.209 480.437 882.092 466.884 881.597 461.979C881.75 463.085 886.186 496.809 868.488 521.284Z" fill="#F1F1F1"/>
<path d="M48.4808 500.805C48.6686 507.814 49.8423 514.762 51.9676 521.444C52.0146 521.599 52.0669 521.752 52.1179 521.907H65.1284C65.1147 521.768 65.1006 521.613 65.087 521.444C64.2195 511.467 69.1753 451.466 75.1555 441.081C74.6315 441.923 47.4721 469.102 48.4808 500.805Z" fill="#F1F1F1"/>
<path d="M49.4571 521.444C49.566 521.599 49.6791 521.754 49.795 521.907H59.5559C59.4819 521.775 59.3961 521.62 59.2967 521.444C57.6844 518.533 52.9118 509.828 48.4818 500.805C43.723 491.107 39.3533 481.042 39.7213 477.399C39.6072 478.221 36.3128 503.267 49.4571 521.444Z" fill="#F1F1F1"/>
<path d="M821 524C698.021 465.473 586.761 467.698 481.964 503.42C320.492 471.752 209.924 476.652 139 524V377H821V524Z" fill="#CBCBCB"/>
<path d="M821 484C707.81 426.34 594.757 422.617 480 484C362.461 445.952 248.834 446.35 139 484V37.0378C255.776 -2.14628 369.368 -1.20466 480 37.0378C596.864 -1.07257 710.632 -2.28125 821 37.0378V484Z" fill="#B4F9BF"/>
<path d="M169.799 93L166 81.8739C167.489 81.2082 203.07 65.4694 255.289 57.441C303.566 50.0171 375.494 48.2447 444 81.9497L439.876 92.9234C373.661 60.3463 303.86 62.0618 256.963 69.2357C205.918 77.046 170.154 92.8411 169.799 93Z" fill="white"/>
<path d="M169.799 133L166 122.152C167.489 121.503 203.07 106.157 255.289 98.3296C303.566 91.0918 375.494 89.3638 444 122.226L439.876 132.925C373.661 101.162 303.86 102.833 256.963 109.83C205.918 117.445 170.154 132.845 169.799 133Z" fill="white"/>
<path d="M169.799 174L166 163.152C167.489 162.503 203.07 147.158 255.289 139.33C303.566 132.092 375.494 130.364 444 163.226L439.876 173.925C373.661 142.163 303.86 143.834 256.963 150.83C205.918 158.445 170.154 173.845 169.799 174Z" fill="white"/>
<path d="M169.799 216L166 204.874C167.489 204.208 203.07 188.469 255.289 180.441C303.566 173.018 375.494 171.243 444 204.95L439.876 215.923C373.661 183.346 303.86 185.061 256.963 192.235C205.918 200.046 170.154 215.841 169.799 216Z" fill="white"/>
<path d="M169.799 257L166 246.152C167.489 245.503 203.07 230.158 255.289 222.33C303.566 215.092 375.494 213.364 444 246.226L439.876 256.925C373.661 225.162 303.86 226.835 256.963 233.83C205.918 241.445 170.154 256.845 169.799 257Z" fill="white"/>
<path d="M169.799 298L166 287.152C167.489 286.503 203.07 271.157 255.289 263.329C303.566 256.092 375.494 254.363 444 287.226L439.876 297.925C373.661 266.161 303.86 267.835 256.963 274.829C205.918 282.445 170.154 297.845 169.799 298Z" fill="white"/>
<path d="M507.813 427L504 416.152C505.494 415.503 541.204 400.157 593.61 392.329C642.061 385.092 714.248 383.363 783 416.226L778.861 426.925C712.408 395.161 642.356 396.835 595.29 403.829C544.062 411.445 508.169 426.845 507.813 427Z" fill="#6C63FF"/>
<path d="M508 306V81.7244L511.665 80.4383C604.547 47.8474 696.978 47.8539 786.39 80.4576L790 81.7738V305.701L782.934 302.705C689.888 263.258 599.816 263.234 515.223 302.636L508 306ZM645.819 261.344C689.535 261.344 734.114 270.498 779.556 288.805V90.3195C694.545 60.2048 606.73 60.2213 518.444 90.3674V288.533C559.01 270.58 602.219 261.357 645.819 261.344V261.344Z" fill="white"/>
<path d="M651.336 264.238L652.432 237.605L690.03 162.817C691.09 160.691 692.819 158.972 694.95 157.924C696.255 157.272 697.677 156.888 699.133 156.793C700.588 156.698 702.048 156.894 703.427 157.37C705.024 157.921 706.472 158.833 707.659 160.036C708.845 161.239 709.738 162.7 710.267 164.305C710.494 164.998 710.653 165.711 710.743 166.435C711.011 168.583 710.631 170.761 709.653 172.691L672.004 247.58L651.336 264.238Z" fill="#6C63FF"/>
<path d="M699.633 157.294L658.819 238.477L655.708 236.911L695.181 158.393C696.565 157.7 698.086 157.325 699.633 157.294Z" fill="#3F3D56"/>
<path d="M710.225 166.501L670.967 244.589L667.855 243.023L708.584 162.01C709.085 162.774 709.484 163.601 709.771 164.469C709.987 165.13 710.139 165.811 710.225 166.501Z" fill="#3F3D56"/>
<path d="M706.316 159.533L665.052 241.613L661.94 240.047L703.256 157.865C703.697 158.015 704.126 158.196 704.541 158.406C705.169 158.722 705.763 159.1 706.316 159.533Z" fill="#3F3D56"/>
<path d="M656.056 259.763L651.904 263.109L652.252 254.288C653.677 254.783 655.221 256.93 656.056 259.763Z" fill="#3F3D56"/>
<path d="M246.507 355.895L241.536 340.81L246.832 291.208C246.977 289.8 247.581 288.478 248.55 287.447C249.142 286.809 249.854 286.297 250.646 285.938C251.438 285.58 252.294 285.383 253.162 285.359C254.169 285.332 255.168 285.537 256.082 285.959C256.996 286.381 257.8 287.009 258.431 287.793C258.703 288.132 258.942 288.496 259.143 288.881C259.743 290.023 259.987 291.317 259.847 292.599L254.544 342.268L246.507 355.895Z" fill="#6C63FF"/>
<path d="M251.03 286.113L245.282 339.956L243.218 339.736L248.778 287.66C249.404 286.983 250.174 286.455 251.03 286.113Z" fill="#3F3D56"/>
<path d="M258.868 289.027L253.338 340.817L251.275 340.597L257.011 286.865C257.451 287.187 257.847 287.564 258.189 287.988C258.448 288.312 258.675 288.659 258.868 289.027Z" fill="#3F3D56"/>
<path d="M255.227 285.96L249.415 340.398L247.352 340.177L253.171 285.671C253.448 285.663 253.725 285.674 254.001 285.703C254.417 285.748 254.828 285.834 255.227 285.96Z" fill="#3F3D56"/>
<path d="M248.202 352.409L246.587 355.146L244.932 350.153C245.831 350.13 247.142 351.004 248.202 352.409Z" fill="#3F3D56"/>
<path d="M837.199 342.819C836.633 343.81 835.877 344.68 834.975 345.378C834.073 346.077 833.042 346.591 831.941 346.891C829.718 347.497 827.346 347.194 825.346 346.05C823.346 344.906 821.882 343.014 821.276 340.79C820.67 338.566 820.973 336.192 822.116 334.191C822.136 334.158 822.155 334.124 822.175 334.09C822.418 333.683 822.691 333.295 822.993 332.929L815.686 280.821L815.467 279.26L813.983 268.627L813.764 267.095L814.573 267.133L828.731 267.78L832.527 267.951L833.003 277.651L835.696 332.186C837.103 333.533 838.016 335.314 838.288 337.242C838.561 339.171 838.177 341.135 837.199 342.819H837.199Z" fill="#FFB8B8"/>
<path d="M815.509 279.732L833.487 278.083C834.42 277.994 835.279 277.541 835.879 276.821C836.479 276.101 836.769 275.173 836.688 274.24L833.358 236.837C833.036 233.235 831.298 229.908 828.524 227.588C825.751 225.268 822.17 224.145 818.569 224.467C814.968 224.788 811.642 226.528 809.323 229.303C807.004 232.077 805.882 235.66 806.204 239.262C806.227 239.52 806.257 239.777 806.295 240.033L811.686 276.719C811.81 277.56 812.231 278.328 812.873 278.884C813.516 279.44 814.336 279.746 815.185 279.747C815.293 279.749 815.402 279.744 815.509 279.732Z" fill="#CBCBCB"/>
<path d="M829.136 249.516C830.955 244.363 831.039 238.756 829.376 233.551C827.713 228.346 824.395 223.827 819.927 220.684C813.147 216.044 803.87 214.378 793.88 226.277C781.79 240.803 773.167 257.894 768.665 276.252L809.579 282.915C809.579 282.915 823.493 265.9 829.136 249.516Z" fill="#CBCBCB"/>
<path d="M762.963 517.58H751.298L745.749 472.566H762.965L762.963 517.58Z" fill="#FFB8B8"/>
<path d="M728.804 528.416H765.465V514.245H742.968C739.212 514.245 735.609 515.738 732.952 518.395C730.296 521.053 728.804 524.657 728.804 528.416Z" fill="#483A2A"/>
<path d="M858.867 507.401L847.792 511.064L828.401 470.067L844.747 464.661L858.867 507.401Z" fill="#FFB8B8"/>
<path d="M829.831 528.416L864.64 516.905L860.195 503.45L838.835 510.513C835.268 511.693 832.315 514.241 830.627 517.599C828.938 520.956 828.652 524.847 829.831 528.416Z" fill="#483A2A"/>
<path d="M803.453 208.881C816.359 208.881 826.822 198.414 826.822 185.501C826.822 172.589 816.359 162.121 803.453 162.121C790.546 162.121 780.083 172.589 780.083 185.501C780.083 198.414 790.546 208.881 803.453 208.881Z" fill="#FFB8B8"/>
<path d="M782.991 505.05L793.824 433.518C793.939 432.755 794.316 432.056 794.89 431.54C795.464 431.024 796.2 430.723 796.971 430.689C797.742 430.655 798.5 430.891 799.117 431.355C799.734 431.819 800.171 432.483 800.353 433.233L816.85 501.401C817.11 502.446 817.75 503.355 818.646 503.951C819.541 504.548 820.627 504.787 821.691 504.624L867.196 497.307C867.799 497.21 868.375 496.985 868.884 496.647C869.393 496.309 869.824 495.866 870.148 495.348C870.472 494.829 870.681 494.247 870.762 493.641C870.842 493.035 870.792 492.419 870.614 491.834L811.279 296.12C811.11 295.564 811.09 294.973 811.221 294.407L813.196 285.84C813.413 284.911 813.313 283.936 812.911 283.071C812.51 282.206 811.831 281.501 810.982 281.067C802.902 276.942 782.437 268.367 766.993 277.76C766.492 278.066 766.058 278.471 765.718 278.95C765.378 279.429 765.139 279.972 765.015 280.546L718.663 498.506C718.536 499.098 718.537 499.711 718.666 500.303C718.794 500.896 719.046 501.454 719.406 501.941C719.765 502.429 720.224 502.835 720.752 503.132C721.28 503.428 721.865 503.61 722.468 503.664L778.375 508.673C778.502 508.684 778.629 508.69 778.756 508.69C779.779 508.688 780.769 508.32 781.545 507.653C782.321 506.985 782.833 506.061 782.988 505.049L782.991 505.05Z" fill="#9B6627"/>
<path d="M818.949 168.983C817.187 167.923 815.624 166.563 814.329 164.966C813.69 164.159 813.269 163.2 813.108 162.183C812.946 161.166 813.049 160.125 813.406 159.159C814.587 156.553 818.095 155.732 820.814 156.617C823.534 157.501 825.634 159.636 827.62 161.693C829.37 163.502 831.17 165.398 831.997 167.777C832.824 170.156 832.401 173.172 830.336 174.616C828.309 176.033 825.396 175.453 823.447 173.932C821.607 172.269 820.14 170.235 819.142 167.963L818.949 168.983Z" fill="#483A2A"/>
<path d="M826.864 162.321C826.993 155.734 834.499 151.01 840.981 152.178C847.464 153.346 852.446 158.874 854.94 164.972C860.209 177.857 856.254 192.558 851.176 205.524C846.099 218.49 839.816 231.644 840.557 245.545C841.058 253.059 843.579 260.298 847.852 266.497C852.125 272.697 857.992 277.626 864.834 280.766C857.519 284.083 848.775 280.657 842.627 275.485C828.975 264 823.706 243.552 830.105 226.895C833.261 218.679 838.823 211.65 843.166 203.996C847.508 196.342 850.695 187.32 848.452 178.809C846.21 170.298 836.668 163.408 828.511 166.701L826.864 162.321Z" fill="#483A2A"/>
<path d="M802.051 195.876C804.088 192.432 806.142 187.911 802.42 184.9C801.611 184.275 800.684 183.818 799.696 183.557C798.707 183.295 797.676 183.234 796.664 183.377C792.466 183.883 787.894 184.092 783.83 182.566C782.306 182.041 780.903 181.215 779.704 180.137C778.505 179.06 777.535 177.752 776.851 176.292C774.758 171.319 777.38 165.276 781.765 162.133C784.448 160.28 787.618 159.261 790.878 159.203C794.138 159.145 797.342 160.051 800.089 161.808C805.769 159.298 812.661 160.415 817.822 163.87C822.983 167.326 826.514 172.859 828.432 178.768C830.199 183.853 830.503 189.333 829.31 194.584C828.35 198.236 826.524 201.603 823.988 204.4C821.451 207.197 818.278 209.341 814.737 210.651C813.358 211.195 811.86 211.367 810.394 211.15C808.927 210.933 807.544 210.334 806.381 209.413C804.492 207.718 803.041 205.591 802.153 203.213C801.377 200.607 800.963 197.716 802.051 195.876Z" fill="black"/>
<path d="M732.724 216.738C732.84 217.252 732.916 217.774 732.951 218.3L773.824 241.89L783.759 236.168L794.35 250.039L777.746 261.879C776.405 262.836 774.789 263.332 773.142 263.291C771.495 263.251 769.905 262.677 768.612 261.656L726.461 228.391C724.558 229.096 722.486 229.205 720.52 228.703C718.554 228.201 716.787 227.112 715.455 225.581C714.123 224.05 713.288 222.149 713.062 220.132C712.836 218.115 713.229 216.076 714.19 214.288C715.15 212.5 716.632 211.046 718.438 210.121C720.244 209.196 722.288 208.843 724.3 209.109C726.311 209.375 728.194 210.248 729.698 211.611C731.202 212.973 732.255 214.762 732.718 216.738L732.724 216.738Z" fill="#FFB8B8"/>
<path d="M775.191 243.007L788.402 260.136C788.778 260.623 789.254 261.023 789.798 261.309C790.343 261.595 790.942 261.761 791.556 261.795C792.17 261.828 792.784 261.729 793.356 261.504C793.928 261.279 794.445 260.934 794.872 260.491L809.827 244.955C811.085 244.024 812.146 242.854 812.952 241.511C813.757 240.169 814.289 238.681 814.518 237.132C814.747 235.584 814.669 234.005 814.287 232.487C813.906 230.969 813.228 229.541 812.294 228.285C811.36 227.029 810.187 225.97 808.843 225.169C807.499 224.367 806.01 223.839 804.462 223.614C802.913 223.389 801.336 223.472 799.819 223.858C798.303 224.244 796.878 224.926 795.625 225.864C795.496 225.96 795.368 226.059 795.243 226.16L776.487 236.652C775.951 236.953 775.485 237.366 775.122 237.863C774.759 238.36 774.507 238.929 774.384 239.532C774.26 240.135 774.268 240.758 774.407 241.358C774.546 241.957 774.813 242.52 775.189 243.007H775.191Z" fill="#CBCBCB"/>
<path d="M218.138 511.505L230.818 511.504L236.851 462.571L218.136 462.572L218.138 511.505Z" fill="#A0616A"/>
<path d="M214.903 507.362L239.876 507.361H239.877C244.098 507.362 248.145 509.039 251.13 512.025C254.114 515.011 255.791 519.06 255.791 523.283V523.8L214.904 523.802L214.903 507.362Z" fill="#483A2A"/>
<path d="M119.403 506.013L131.941 507.909L145.217 460.428L128.78 457.63L119.403 506.013Z" fill="#A0616A"/>
<path d="M116.823 501.434L141.515 505.167L141.516 505.168C145.69 505.799 149.441 508.063 151.946 511.462C154.451 514.86 155.504 519.115 154.873 523.29L154.796 523.802L114.368 517.688L116.823 501.434Z" fill="#483A2A"/>
<path d="M158.5 269.006L172.58 272.697L171.643 295.534L171.527 337.113C172.914 338.073 173.977 339.431 174.576 341.009C175.174 342.586 175.28 344.308 174.879 345.947C174.478 347.586 173.589 349.064 172.33 350.187C171.071 351.31 169.501 352.023 167.828 352.234C166.154 352.444 164.456 352.141 162.959 351.365C161.461 350.589 160.234 349.377 159.44 347.888C158.647 346.399 158.323 344.704 158.513 343.028C158.703 341.351 159.397 339.772 160.504 338.498L156.177 296.767L158.5 269.006Z" fill="#A0616A"/>
<path d="M156.049 242.848C156.127 240.641 156.838 238.503 158.098 236.69C159.358 234.877 161.114 233.465 163.154 232.623C165.065 231.768 167.183 231.489 169.249 231.822C171.315 232.154 173.24 233.083 174.786 234.494C175.897 235.488 176.778 236.712 177.368 238.081C177.958 239.45 178.242 240.931 178.201 242.421C178.238 255.799 175.219 275.299 175.188 275.494L175.14 275.805L154.561 282.738L156.049 242.848Z" fill="#CBCBCB"/>
<path d="M192.847 280.825L224.323 272.673L238.874 321.698L239.391 504.337L215.32 504.186L205.258 356.364L141.131 492.954L115.273 489.85L171.643 343.429C171.643 343.429 168.54 317.559 178.366 304.625L176.298 291.173L192.847 280.825Z" fill="#9B6627"/>
<path d="M171.622 293.022C171.182 292.487 170.863 291.863 170.685 291.194C170.507 290.524 170.476 289.824 170.593 289.141L156.236 246.048C155.565 244.033 155.494 241.868 156.031 239.813C156.567 237.759 157.688 235.905 159.258 234.476L165.491 228.808L169.715 211.905L193.992 217.842L191.991 225.846L202.979 223.849L226.12 275.414L177.748 294.757L175.366 294.795C174.649 294.796 173.942 294.637 173.294 294.331C172.647 294.024 172.075 293.577 171.622 293.022Z" fill="#CBCBCB"/>
<path d="M205.318 256.638L219.189 252.228L230.599 272.029L252.717 307.232C254.402 307.301 256.026 307.881 257.375 308.894C258.724 309.907 259.733 311.306 260.27 312.905C260.807 314.505 260.845 316.23 260.381 317.852C259.917 319.474 258.971 320.917 257.669 321.989C256.367 323.062 254.77 323.714 253.09 323.859C251.41 324.004 249.725 323.636 248.259 322.802C246.792 321.968 245.614 320.709 244.878 319.19C244.143 317.672 243.886 315.966 244.141 314.298L218.187 281.342L205.318 256.638Z" fill="#A0616A"/>
<path d="M189.271 235.84C188.157 233.934 187.616 231.747 187.712 229.54C187.808 227.334 188.537 225.203 189.812 223.4C190.97 221.656 192.612 220.288 194.536 219.465C196.459 218.641 198.582 218.396 200.642 218.762C202.112 219.007 203.511 219.57 204.741 220.411C205.97 221.253 207.002 222.353 207.764 223.634C214.943 234.921 222.81 253.016 222.889 253.197L223.013 253.485L209.325 270.35L189.271 235.84Z" fill="#CBCBCB"/>
<path d="M187.676 208.76C198.329 208.76 206.965 200.12 206.965 189.462C206.965 178.805 198.329 170.165 187.676 170.165C177.024 170.165 168.388 178.805 168.388 189.462C168.388 200.12 177.024 208.76 187.676 208.76Z" fill="#A0616A"/>
<path d="M153.589 181.323C163.85 181.323 172.169 173 172.169 162.734C172.169 152.468 163.85 144.146 153.589 144.146C143.327 144.146 135.009 152.468 135.009 162.734C135.009 173 143.327 181.323 153.589 181.323Z" fill="#483A2A"/>
<path d="M137.563 178.126C139.967 179.865 142.753 181.003 145.688 181.444C148.622 181.884 151.619 181.616 154.429 180.66C157.238 179.705 159.777 178.09 161.835 175.951C163.893 173.812 165.408 171.211 166.255 168.366C165.935 170.916 165.089 173.371 163.772 175.577C162.456 177.784 160.696 179.693 158.604 181.184C156.512 182.676 154.134 183.717 151.62 184.243C149.106 184.769 146.51 184.767 143.997 184.239C141.483 183.71 139.106 182.666 137.016 181.172C134.926 179.678 133.169 177.766 131.855 175.558C130.54 173.351 129.698 170.894 129.381 168.344C129.063 165.794 129.278 163.206 130.01 160.743C129.594 164.052 130.076 167.412 131.404 170.471C132.733 173.529 134.86 176.174 137.563 178.126Z" fill="#483A2A"/>
<path d="M210.888 178.147C207.644 172.338 206.403 169.911 202.221 166.378C198.522 163.254 193.973 162.336 190.304 165.297C185.963 163.42 181.134 162.995 176.532 164.083C171.93 165.172 167.803 167.717 164.762 171.339C161.721 174.962 159.929 179.469 159.652 184.191C159.376 188.914 160.629 193.6 163.226 197.553C165.824 201.506 169.626 204.515 174.069 206.134C178.512 207.753 183.359 207.894 187.889 206.538C192.419 205.182 196.391 202.4 199.214 198.605C202.038 194.811 203.563 190.206 203.563 185.476C203.559 184.645 203.509 183.815 203.413 182.99C206.602 182.542 207.698 178.595 210.888 178.147Z" fill="black"/>
<path d="M481 37H478V482H481V37Z" fill="#CBCBCB"/>
<g filter="url(#filter0_dd)">
<path d="M224.02 152.36C219.3 164.12 211.46 175.56 202.74 182.76C204.42 183.64 207.14 185.88 208.42 187C216.9 179.16 225.14 167 230.5 154.2L224.02 152.36ZM247.3 196.2C251.06 200.68 255.14 206.12 258.74 211.32C246.66 211.88 234.34 212.44 223.54 212.84C228.82 203.4 234.58 190.92 238.9 180.6L232.02 178.92C228.58 189.24 222.26 203.4 216.9 213.16C212.9 213.24 209.22 213.4 205.94 213.48L206.74 219.72C220.98 219 242.26 218.04 262.42 216.84C263.94 219.24 265.3 221.56 266.34 223.48L272.18 220.2C268.26 213.08 260.1 201.96 252.82 193.64L247.3 196.2ZM246.5 154.76C252.58 165.96 262.58 179.32 269.94 187C271.14 185.4 273.3 183.08 274.9 181.96C267.62 175.24 257.62 162.76 252.26 152.36L246.5 154.76Z" fill="#52FF00"/>
<path d="M309.22 158.04V164.52H291.7V158.04H309.22ZM291.7 175.64V168.76H309.22V175.64H291.7ZM314.82 180.2V153.48H285.86V223.16H291.7V180.2H314.82ZM312.58 198.76V190.12H323.78V198.76H312.58ZM339.94 203.8V198.76H329.06V190.12H338.18V185.24H298.74V190.12H307.38V198.76H297.22V203.8H307.22C306.74 208.44 304.5 215.08 297.78 219.16C299.06 219.96 300.82 221.64 301.7 222.68C309.38 217.48 311.94 209.16 312.42 203.8H323.78V221.64H329.06V203.8H339.94ZM327.54 175.72V168.76H345.7V175.72H327.54ZM345.7 158.04V164.52H327.54V158.04H345.7ZM351.54 153.48H321.86V180.28H345.7V215.32C345.7 216.6 345.3 217.08 344.02 217.08C342.82 217.16 338.5 217.16 334.1 217C334.98 218.6 335.86 221.4 336.02 222.92C342.02 223 346.02 222.84 348.42 221.88C350.74 220.84 351.54 218.92 351.54 215.4V153.48Z" fill="#FF0000"/>
<path d="M435.3 160.84C433.7 157.96 430.18 153.64 427.06 150.68L422.9 152.84C425.94 155.96 429.38 160.44 430.98 163.4L435.3 160.84ZM387.7 152.84H365.78V157.64H387.7V152.84ZM382.9 200.28V213.72H370.34V200.28H382.9ZM388.02 195.4H365.3V222.2H370.34V218.52H388.02V195.4ZM365.38 189.48H388.1V184.68H365.38V189.48ZM365.38 178.84H388.1V174.12H365.38V178.84ZM361.86 168.2H390.02V163.32H361.86V168.2ZM405.86 209.32V187.64H414.02V182.52H391.94V187.64H400.42V210.44C396.66 211.24 393.22 211.88 390.42 212.44L391.78 217.88C398.66 216.28 407.7 214.28 416.26 212.2L415.94 207.24L405.86 209.32ZM434.34 171.32V165.96H421.86C421.78 160.92 421.78 155.64 421.86 150.12H416.1C416.18 155.64 416.18 160.92 416.26 165.96H391.3V171.32H416.42C417.14 202.84 419.54 222.84 429.3 223.16C431.94 223.24 434.82 220.28 436.26 208.68C435.38 208.12 432.9 206.6 431.86 205.32C431.54 211.8 430.66 215.88 429.38 215.8C424.66 215.48 422.42 197.88 421.94 171.32H434.34Z" fill="#B97715"/>
</g>
<g filter="url(#filter1_d)">
<path d="M632.78 102.6C637.46 109.62 641.96 118.98 643.22 125.1H611.36L617.3 122.58C615.5 117 611 109.44 605.96 103.5C615.5 102.96 625.22 102.42 634.94 101.88L632.78 102.6ZM584.36 135.9H635.48L630.26 141.48C639.8 145.62 651.32 152.46 656.9 157.32L663.92 149.22C658.88 144.9 649.34 139.86 640.88 135.9H709.1V157.5H722.06V125.1H689.66C694.88 118.62 700.46 110.88 705.32 103.5L692.72 98.64C688.76 106.38 681.56 117.72 676.16 125.1H643.76L654.92 121.14C653.48 115.56 649.7 107.64 645.2 100.98C670.58 99.18 694.7 96.3 713.06 92.7L704.24 83.34C675.26 89.1 621.44 92.88 577.52 94.14C578.78 96.66 580.04 101.34 580.4 104.4C586.34 104.22 592.46 104.04 598.76 103.68L593.54 105.84C598.04 111.6 602.9 119.34 605.06 125.1H571.94V156.24H584.36V135.9ZM680.48 150.66C690.92 158.94 702.8 171.18 708.2 179.28L717.74 171.9C712.34 163.8 700.1 152.28 689.66 144.36L680.48 150.66ZM585.62 181.44C597.68 174.42 604.34 162.54 608.48 150.84L598.4 146.52C594.44 157.32 587.24 167.94 576.44 173.7L585.62 181.44ZM675.8 199.44C668.42 207 658.7 213.3 647.36 218.34C635.48 213.12 625.58 206.82 618.02 199.44H675.8ZM687.14 189L684.98 189.54H629C632.78 186.12 636.02 182.52 639.08 178.74L635.84 177.66H665C676.7 177.66 680.12 174.24 681.38 159.66C677.96 158.94 673.28 157.68 670.76 155.88C670.04 166.5 668.96 167.76 663.38 167.76H637.1C629.54 167.76 628.28 167.04 628.28 163.44V146.34H615.86V163.62C615.86 171.9 618.02 175.68 625.58 176.94C612.44 192.06 590.84 204.84 569.78 212.94C572.3 215.1 577.16 219.42 579.14 221.76C588.86 217.44 599.12 211.86 608.66 205.56C615.5 212.58 623.78 218.7 633.14 223.92C613.52 230.58 590.66 234.72 567.26 236.88C569.78 239.58 573.02 244.98 574.28 248.04C600.02 244.8 625.58 239.58 647.18 230.76C668.24 239.58 693.44 245.16 719.9 247.86C721.7 244.44 724.76 238.86 727.64 236.16C703.7 234.36 681.02 230.22 661.76 223.92C675.8 216.36 687.32 206.64 695.6 194.58L687.14 189Z" fill="#C40F0F"/>
</g>
<g filter="url(#filter2_d)">
<path d="M393.8 248.6H367.95V252.45H393.8V248.6ZM363.3 240.3C360.45 248.1 355.6 255.7 350.45 260.6C351.2 261.5 352.35 263.4 352.75 264.25C354.5 262.45 356.3 260.4 357.95 258.1V285.75H361.6V252.45C363.65 248.95 365.45 245.2 366.95 241.45L363.3 240.3ZM365.15 278.35V282.2H395.95V278.35H365.15Z" fill="#19BB46"/>
<path d="M445.6 257.4H425.3V254.2H440.85V251.4H425.3V248.35H443.5V245.45H433.2C434.1 244.2 435.2 242.6 436.2 241.1L432.25 240.05C431.6 241.6 430.35 243.9 429.4 245.45H417.45L417.8 245.3C417.2 243.8 415.75 241.7 414.3 240.2L411.1 241.3C412.1 242.55 413.15 244.1 413.85 245.45H403.6V248.35H421.55V251.4H406.25V254.2H421.55V257.4H401.45V260.35H445.6V257.4ZM442.9 265.45C441.15 263.95 437.65 262.1 434.8 261.05L432.8 263.25C435.65 264.45 439.1 266.4 440.75 267.9L442.9 265.45ZM438.65 271.95C437.3 273.7 435.45 275.3 433.35 276.7C432.4 275.15 431.55 273.35 430.85 271.3H445.75V268.4H430.05C429.55 266.15 429.2 263.7 429.1 261.1H425.5C425.65 263.65 425.95 266.1 426.45 268.4H415.55V264.55C418.55 264.2 421.35 263.7 423.65 263.15L421.4 260.8C416.95 261.95 408.8 262.85 402 263.25C402.35 263.9 402.75 264.95 402.85 265.7C405.75 265.55 408.9 265.3 412 265V268.4H401.4V271.3H412V274.95C407.9 275.25 404.15 275.5 401.2 275.7L401.55 278.7L412 277.75V282.05C412 282.75 411.75 282.9 411 282.9C410.25 282.95 407.65 282.95 404.95 282.85C405.35 283.7 405.9 284.95 406.1 285.8C409.85 285.8 412.2 285.8 413.65 285.3C415.05 284.9 415.55 284.05 415.55 282.15V277.45C418.5 277.15 421.5 276.9 424.5 276.6V273.95L415.55 274.65V271.3H427.2C428 274 429.05 276.4 430.3 278.45C426.85 280.25 422.9 281.7 419 282.7C419.6 283.4 420.55 284.95 420.95 285.65C424.75 284.45 428.6 282.9 432.1 281C434.7 284.05 437.85 285.8 441.4 285.8C444.55 285.75 445.85 284.4 446.4 279.1C445.45 278.85 444.3 278.25 443.55 277.65C443.3 281.2 442.9 282.35 441.55 282.4C439.3 282.45 437.1 281.25 435.15 279.15C437.8 277.4 440.1 275.35 441.85 273.05L438.65 271.95Z" fill="#FFE604"/>
</g>
<g filter="url(#filter3_d)">
<path d="M373.25 348.5C371.85 347.5 366.1 344 364.15 342.95C364.25 342.65 364.35 342.4 364.4 342.1H373.65V339.05H364.95C365.05 338.4 365.05 337.85 365.05 337.25V334.35H372.4V331.35H358.8C359.3 330.15 359.8 328.95 360.15 327.7L356.8 327.05C355.65 330.8 353.7 334.55 351.15 337C352 337.4 353.45 338.3 354.15 338.8C355.25 337.6 356.35 336.05 357.3 334.35H361.5V337.25C361.5 337.85 361.5 338.4 361.4 339.05H351.15V342.1H360.75C359.7 345.15 357.05 348.45 350.7 350.95C351.55 351.5 352.6 352.7 353.05 353.5C358.3 351.1 361.3 348.3 363 345.45C365.5 347.15 369.2 349.8 370.65 351.05L373.25 348.5ZM385.15 355.4V360.1H362.05V355.4H385.15ZM362.05 367.95V363H385.15V367.95H362.05ZM358.4 372.85H362.05V371H385.15V372.75H388.9V352.35H358.4V372.85ZM389.5 345.15H379.2V334.55H389.5V345.15ZM375.7 331.2V348.55H393.15V331.2H375.7Z" fill="black"/>
<path d="M441.7 329.55H418.8V332.6H441.7V329.55ZM412.45 327.3C409.55 334.85 404.7 342.25 399.65 347C400.3 347.85 401.4 349.8 401.75 350.6C403.65 348.7 405.5 346.5 407.3 344V372.65H410.8V338.65C412.75 335.4 414.5 331.85 415.9 328.35L412.45 327.3ZM439.35 360.05V367.4H421.25V360.05H439.35ZM417.65 372.8H421.25V370.45H439.35V372.65H443.05V357.05H417.65V372.8ZM418.2 353.2H442.5V350.2H418.2V353.2ZM442.6 343.3H418.2V346.35H442.6V343.3ZM414.1 336.4V339.5H446.4V336.4H414.1Z" fill="#693A02"/>
</g>
<g filter="url(#filter4_d)">
<path d="M559.381 337.3H567.281V333.85H553.031C553.631 331.95 554.181 329.95 554.581 327.85L550.981 327.15C549.781 333.2 547.731 339.15 544.781 343C545.631 343.5 547.181 344.5 547.831 345.15C549.381 343 550.681 340.3 551.881 337.3H555.681V345.5C555.681 346.05 555.681 346.65 555.681 347.25H545.381V350.8H555.431C554.781 357.35 552.431 364.55 544.831 369.95C545.631 370.5 546.931 371.9 547.431 372.7C553.131 368.65 556.181 363.25 557.781 357.95C560.481 361 564.381 365.7 566.081 368.15L568.581 365C567.031 363.25 560.981 356.5 558.631 354.15C558.831 353.05 559.031 351.9 559.131 350.8H568.731V347.25H559.331C559.381 346.65 559.381 346.05 559.381 345.55V337.3ZM573.931 363.95V335H584.481V363.95H573.931ZM570.331 331.5V371.4H573.931V367.45H584.481V370.9H588.181V331.5H570.331ZM639.131 330.2H614.731V333.7H639.131V330.2ZM606.381 327.15C603.881 330.7 599.081 335.2 594.931 338C595.581 338.7 596.581 340.15 597.131 340.95C601.581 337.8 606.681 332.95 609.931 328.55L606.381 327.15ZM608.431 337.8C604.981 343.45 599.581 349.2 594.431 352.85C595.181 353.6 596.481 355.2 597.031 355.95C598.881 354.5 600.781 352.7 602.681 350.75V372.95H606.381V346.65C608.431 344.2 610.331 341.65 611.881 339.1L608.431 337.8ZM640.581 343.85H612.581V347.4H629.281V368C629.281 368.85 628.981 369.05 628.031 369.1C627.081 369.15 623.781 369.15 620.231 369.05C620.781 370.1 621.281 371.65 621.431 372.65C626.331 372.65 629.131 372.65 630.831 372.1C632.481 371.5 633.031 370.35 633.031 368.05V347.4H640.581V343.85Z" fill="#CB0E0E"/>
<path d="M646.57 351.202C646.57 350.421 646.798 349.77 647.254 349.249C647.726 348.728 648.426 348.468 649.354 348.468C650.281 348.468 650.981 348.728 651.453 349.249C651.941 349.77 652.186 350.421 652.186 351.202C652.186 351.967 651.941 352.61 651.453 353.131C650.981 353.635 650.281 353.888 649.354 353.888C648.426 353.888 647.726 353.635 647.254 353.131C646.798 352.61 646.57 351.967 646.57 351.202Z" fill="#693A02"/>
<path d="M701.569 350.25V346.45H682.569C682.619 345.5 682.619 344.55 682.619 343.65V334.8H702.819V331H659.169V334.8H678.719V343.6C678.719 344.55 678.719 345.5 678.619 346.45H660.719V350.25H678.219C676.869 357.5 672.419 364.85 658.219 369.7C659.019 370.4 660.119 372 660.469 372.9C673.819 368.3 679.219 361.4 681.319 354.2C685.119 363.7 691.369 370 701.569 372.9C702.119 371.85 703.219 370.25 704.119 369.45C693.369 366.8 686.969 360.1 683.719 350.25H701.569ZM728.469 328.7C728.119 335.3 728.119 359.15 707.869 369.5C709.019 370.25 710.219 371.45 710.869 372.35C723.519 365.5 728.669 353.45 730.869 343.45C733.269 353.45 738.769 366.25 751.669 372.35C752.219 371.35 753.369 370.1 754.419 369.3C735.619 360.7 732.919 337.6 732.469 331C732.519 330.15 732.519 329.35 732.569 328.7H728.469Z" fill="#1202C6"/>
</g>
</g>
<defs>
<filter id="filter0_dd" x="198.74" y="150.12" width="241.52" height="81.36" filterUnits="userSpaceOnUse" color-interpolation-filters="sRGB">
<feFlood flood-opacity="0" result="BackgroundImageFix"/>
<feColorMatrix in="SourceAlpha" type="matrix" values="0 0 0 0 0 0 0 0 0 0 0 0 0 0 0 0 0 0 127 0"/>
<feOffset dy="4"/>
<feGaussianBlur stdDeviation="2"/>
<feColorMatrix type="matrix" values="0 0 0 0 0 0 0 0 0 0 0 0 0 0 0 0 0 0 0.25 0"/>
<feBlend mode="normal" in2="BackgroundImageFix" result="effect1_dropShadow"/>
<feColorMatrix in="SourceAlpha" type="matrix" values="0 0 0 0 0 0 0 0 0 0 0 0 0 0 0 0 0 0 127 0"/>
<feOffset dy="4"/>
<feGaussianBlur stdDeviation="2"/>
<feColorMatrix type="matrix" values="0 0 0 0 0 0 0 0 0 0 0 0 0 0 0 0 0 0 0.25 0"/>
<feBlend mode="normal" in2="effect1_dropShadow" result="effect2_dropShadow"/>
<feBlend mode="normal" in="SourceGraphic" in2="effect2_dropShadow" result="shape"/>
</filter>
<filter id="filter1_d" x="563.26" y="83.34" width="168.38" height="172.7" filterUnits="userSpaceOnUse" color-interpolation-filters="sRGB">
<feFlood flood-opacity="0" result="BackgroundImageFix"/>
<feColorMatrix in="SourceAlpha" type="matrix" values="0 0 0 0 0 0 0 0 0 0 0 0 0 0 0 0 0 0 127 0"/>
<feOffset dy="4"/>
<feGaussianBlur stdDeviation="2"/>
<feColorMatrix type="matrix" values="0 0 0 0 0 0 0 0 0 0 0 0 0 0 0 0 0 0 0.25 0"/>
<feBlend mode="normal" in2="BackgroundImageFix" result="effect1_dropShadow"/>
<feBlend mode="normal" in="SourceGraphic" in2="effect1_dropShadow" result="shape"/>
</filter>
<filter id="filter2_d" x="346.45" y="240.05" width="103.95" height="53.75" filterUnits="userSpaceOnUse" color-interpolation-filters="sRGB">
<feFlood flood-opacity="0" result="BackgroundImageFix"/>
<feColorMatrix in="SourceAlpha" type="matrix" values="0 0 0 0 0 0 0 0 0 0 0 0 0 0 0 0 0 0 127 0"/>
<feOffset dy="4"/>
<feGaussianBlur stdDeviation="2"/>
<feColorMatrix type="matrix" values="0 0 0 0 0 0 0 0 0 0 0 0 0 0 0 0 0 0 0.25 0"/>
<feBlend mode="normal" in2="BackgroundImageFix" result="effect1_dropShadow"/>
<feBlend mode="normal" in="SourceGraphic" in2="effect1_dropShadow" result="shape"/>
</filter>
<filter id="filter3_d" x="346.7" y="327.05" width="103.7" height="53.8" filterUnits="userSpaceOnUse" color-interpolation-filters="sRGB">
<feFlood flood-opacity="0" result="BackgroundImageFix"/>
<feColorMatrix in="SourceAlpha" type="matrix" values="0 0 0 0 0 0 0 0 0 0 0 0 0 0 0 0 0 0 127 0"/>
<feOffset dy="4"/>
<feGaussianBlur stdDeviation="2"/>
<feColorMatrix type="matrix" values="0 0 0 0 0 0 0 0 0 0 0 0 0 0 0 0 0 0 0.25 0"/>
<feBlend mode="normal" in2="BackgroundImageFix" result="effect1_dropShadow"/>
<feBlend mode="normal" in="SourceGraphic" in2="effect1_dropShadow" result="shape"/>
</filter>
<filter id="filter4_d" x="540.781" y="327.15" width="217.637" height="53.8" filterUnits="userSpaceOnUse" color-interpolation-filters="sRGB">
<feFlood flood-opacity="0" result="BackgroundImageFix"/>
<feColorMatrix in="SourceAlpha" type="matrix" values="0 0 0 0 0 0 0 0 0 0 0 0 0 0 0 0 0 0 127 0"/>
<feOffset dy="4"/>
<feGaussianBlur stdDeviation="2"/>
<feColorMatrix type="matrix" values="0 0 0 0 0 0 0 0 0 0 0 0 0 0 0 0 0 0 0.25 0"/>
<feBlend mode="normal" in2="BackgroundImageFix" result="effect1_dropShadow"/>
<feBlend mode="normal" in="SourceGraphic" in2="effect1_dropShadow" result="shape"/>
</filter>
<clipPath id="clip0">
<rect width="933" height="524" fill="white"/>
</clipPath>
</defs>
</svg>
