<svg width="933" height="524" viewBox="0 0 933 524" fill="none" xmlns="http://www.w3.org/2000/svg">
<g clip-path="url(#clip0)">
<path d="M869.802 493.494C869.55 502.932 867.969 512.287 865.108 521.284C865.044 521.493 864.974 521.698 864.905 521.907H847.387C847.406 521.72 847.425 521.511 847.443 521.284C848.611 507.85 841.938 427.061 833.886 413.078C834.592 414.213 871.161 450.807 869.802 493.494Z" fill="#F1F1F1"/>
<path d="M868.488 521.284C868.341 521.493 868.189 521.702 868.033 521.907H854.891C854.99 521.729 855.106 521.521 855.239 521.284C857.41 517.364 863.836 505.644 869.801 493.494C876.209 480.437 882.092 466.884 881.597 461.979C881.75 463.085 886.186 496.809 868.488 521.284Z" fill="#F1F1F1"/>
<path d="M48.4808 500.805C48.6686 507.814 49.8423 514.762 51.9676 521.444C52.0146 521.599 52.0669 521.752 52.1179 521.907H65.1284C65.1147 521.768 65.1006 521.613 65.0869 521.444C64.2195 511.467 69.1753 451.466 75.1555 441.081C74.6315 441.923 47.4721 469.102 48.4808 500.805Z" fill="#F1F1F1"/>
<path d="M49.4571 521.444C49.566 521.599 49.6791 521.754 49.795 521.907H59.5559C59.4819 521.775 59.3961 521.62 59.2967 521.444C57.6844 518.533 52.9118 509.828 48.4818 500.805C43.723 491.107 39.3533 481.042 39.7213 477.399C39.6072 478.221 36.3128 503.267 49.4571 521.444Z" fill="#F1F1F1"/>
<path d="M684.11 367.559C585.844 325.896 496.943 327.48 413.205 352.909C284.183 330.366 195.834 333.853 139.163 367.559V262.916H684.11V367.559Z" fill="#CBCBCB"/>
<path d="M684.11 338.782C593.579 297.744 503.159 295.094 411.375 338.782C317.366 311.702 226.486 311.985 138.64 338.782V20.667C232.038 -7.22137 322.89 -6.55119 411.375 20.667C504.844 -6.45718 595.837 -7.31743 684.11 20.667V338.782Z" fill="#F9B4B4"/>
<path d="M163.173 60.1447L160.128 52.347C161.321 51.8805 189.841 40.8501 231.696 35.2235C270.393 30.0205 328.046 28.7783 382.956 52.4002L379.651 60.0911C326.577 37.2597 270.628 38.4619 233.038 43.4897C192.124 48.9635 163.458 60.0333 163.173 60.1447Z" fill="white"/>
<path d="M163.173 89.4448L160.128 81.6471C161.321 81.1806 189.841 70.1502 231.696 64.5236C270.393 59.3211 328.046 58.0789 382.956 81.7002L379.651 89.3911C326.577 66.5597 270.628 67.761 233.038 72.7898C192.124 78.2636 163.458 89.3334 163.173 89.4448Z" fill="white"/>
<path d="M163.173 118.745L160.128 110.947C161.321 110.481 189.841 99.4502 231.696 93.8236C270.393 88.6206 328.046 87.3784 382.956 111L379.651 118.691C326.577 95.8598 270.628 97.061 233.038 102.09C192.124 107.564 163.458 118.633 163.173 118.745Z" fill="white"/>
<path d="M163.173 148.045L160.128 140.247C161.321 139.781 189.841 128.75 231.696 123.124C270.393 117.922 328.046 116.678 382.956 140.3L379.651 147.991C326.577 125.16 270.628 126.362 233.038 131.39C192.124 136.864 163.458 147.933 163.173 148.045Z" fill="white"/>
<path d="M163.173 177.345L160.128 169.547C161.321 169.081 189.841 158.05 231.696 152.424C270.393 147.221 328.046 145.979 382.956 169.6L379.651 177.291C326.577 154.459 270.628 155.662 233.038 160.69C192.124 166.164 163.458 177.234 163.173 177.345Z" fill="white"/>
<path d="M163.173 206.645L160.128 198.847C161.321 198.381 189.841 187.35 231.696 181.724C270.393 176.522 328.046 175.279 382.956 198.9L379.651 206.591C326.577 183.759 270.628 184.962 233.038 189.99C192.124 195.464 163.458 206.534 163.173 206.645Z" fill="white"/>
<path d="M434.045 298.033L431 290.236C432.194 289.769 460.713 278.739 502.569 273.112C541.265 267.91 598.918 266.667 653.828 290.289L650.523 297.98C597.449 275.148 541.501 276.35 503.911 281.378C462.996 286.852 434.33 297.922 434.045 298.033Z" fill="#6C63FF"/>
<path d="M433.602 212.152V52.1217L436.538 51.204C510.951 27.9491 585.004 27.9537 656.638 51.2178L659.53 52.157V211.939L653.869 209.801C579.323 181.654 507.161 181.637 439.388 209.752L433.602 212.152ZM544.017 180.288C579.041 180.288 614.756 186.819 651.162 199.882V58.2547C583.055 36.7666 512.701 36.7783 441.969 58.2889V199.688C474.469 186.879 509.086 180.297 544.017 180.288V180.288Z" fill="white"/>
<path d="M651.336 264.238L652.432 237.605L690.03 162.817C691.09 160.691 692.819 158.972 694.95 157.924C696.255 157.272 697.677 156.888 699.133 156.793C700.588 156.698 702.048 156.894 703.427 157.37C705.024 157.921 706.472 158.833 707.659 160.036C708.845 161.239 709.738 162.7 710.267 164.305C710.494 164.998 710.653 165.711 710.743 166.435C711.011 168.583 710.631 170.761 709.653 172.691L672.004 247.58L651.336 264.238Z" fill="#6C63FF"/>
<path d="M699.633 157.294L658.819 238.477L655.708 236.911L695.181 158.393C696.565 157.7 698.086 157.325 699.633 157.294Z" fill="#3F3D56"/>
<path d="M710.225 166.501L670.967 244.589L667.855 243.023L708.584 162.01C709.085 162.774 709.484 163.601 709.771 164.469C709.987 165.13 710.139 165.811 710.225 166.501V166.501Z" fill="#3F3D56"/>
<path d="M706.316 159.533L665.052 241.613L661.94 240.047L703.256 157.865C703.697 158.015 704.126 158.196 704.541 158.406C705.169 158.722 705.763 159.1 706.316 159.533V159.533Z" fill="#3F3D56"/>
<path d="M656.056 259.763L651.904 263.109L652.252 254.288C653.677 254.783 655.221 256.93 656.056 259.763Z" fill="#3F3D56"/>
<path d="M246.507 355.895L241.536 340.81L246.832 291.208C246.977 289.8 247.581 288.478 248.55 287.447C249.142 286.809 249.854 286.297 250.646 285.938C251.438 285.58 252.294 285.383 253.162 285.359C254.169 285.332 255.168 285.537 256.082 285.959C256.996 286.381 257.8 287.009 258.431 287.793C258.703 288.132 258.942 288.496 259.143 288.881C259.743 290.023 259.987 291.317 259.847 292.599L254.544 342.268L246.507 355.895Z" fill="#6C63FF"/>
<path d="M251.03 286.113L245.282 339.956L243.218 339.736L248.778 287.66C249.404 286.983 250.174 286.455 251.03 286.113V286.113Z" fill="#3F3D56"/>
<path d="M258.868 289.027L253.338 340.817L251.275 340.597L257.011 286.865C257.451 287.187 257.847 287.564 258.189 287.988C258.448 288.312 258.675 288.659 258.868 289.027V289.027Z" fill="#3F3D56"/>
<path d="M255.227 285.96L249.415 340.398L247.352 340.177L253.171 285.671C253.448 285.663 253.725 285.674 254.001 285.703C254.417 285.748 254.828 285.834 255.227 285.96V285.96Z" fill="#3F3D56"/>
<path d="M248.202 352.409L246.587 355.146L244.932 350.153C245.831 350.13 247.142 351.004 248.202 352.409Z" fill="#3F3D56"/>
<path d="M784.933 338.205C784.367 339.196 783.611 340.066 782.709 340.764C781.807 341.463 780.776 341.977 779.675 342.277C777.452 342.883 775.08 342.58 773.08 341.436C771.08 340.292 769.616 338.4 769.01 336.176C768.404 333.952 768.707 331.578 769.85 329.577C769.87 329.544 769.889 329.51 769.909 329.476C770.152 329.069 770.426 328.681 770.727 328.315L763.42 276.207L763.201 274.646L761.717 264.013L761.498 262.481L762.307 262.519L776.465 263.166L780.261 263.337L780.737 273.037L783.43 327.572C784.837 328.919 785.75 330.7 786.022 332.628C786.295 334.557 785.911 336.521 784.933 338.205H784.933Z" fill="#FFB8B8"/>
<path d="M763.243 275.118L781.221 273.469C782.154 273.38 783.014 272.927 783.613 272.207C784.213 271.487 784.503 270.559 784.422 269.626L781.092 232.223C780.771 228.621 779.032 225.293 776.258 222.974C773.485 220.654 769.904 219.531 766.303 219.853C762.702 220.174 759.376 221.914 757.057 224.689C754.739 227.463 753.616 231.046 753.938 234.648C753.961 234.906 753.991 235.163 754.029 235.419L759.42 272.105C759.544 272.946 759.965 273.714 760.608 274.27C761.25 274.826 762.07 275.132 762.92 275.133C763.028 275.135 763.136 275.13 763.243 275.118V275.118Z" fill="#CBCBCB"/>
<path d="M776.87 244.902C778.689 239.749 778.773 234.142 777.11 228.937C775.447 223.732 772.129 219.213 767.661 216.07C760.881 211.43 751.604 209.764 741.614 221.663C729.524 236.189 720.901 253.28 716.399 271.638L757.313 278.301C757.313 278.301 771.227 261.286 776.87 244.902Z" fill="#CBCBCB"/>
<path d="M710.697 512.966H699.032L693.483 467.952H710.699L710.697 512.966Z" fill="#FFB8B8"/>
<path d="M676.538 523.802H713.199V509.631H690.702C686.946 509.631 683.343 511.124 680.686 513.781C678.03 516.439 676.538 520.043 676.538 523.802V523.802Z" fill="#483A2A"/>
<path d="M806.601 502.787L795.526 506.45L776.135 465.453L792.481 460.047L806.601 502.787Z" fill="#FFB8B8"/>
<path d="M777.565 523.802L812.374 512.291L807.929 498.836L786.569 505.899C783.002 507.079 780.049 509.627 778.361 512.985C776.672 516.342 776.386 520.233 777.565 523.802V523.802Z" fill="#483A2A"/>
<path d="M751.187 204.267C764.093 204.267 774.556 193.8 774.556 180.887C774.556 167.975 764.093 157.507 751.187 157.507C738.28 157.507 727.817 167.975 727.817 180.887C727.817 193.8 738.28 204.267 751.187 204.267Z" fill="#FFB8B8"/>
<path d="M730.725 500.436L741.558 428.904C741.673 428.141 742.05 427.442 742.624 426.926C743.198 426.409 743.934 426.109 744.705 426.075C745.476 426.041 746.235 426.277 746.851 426.741C747.468 427.205 747.905 427.869 748.087 428.619L764.584 496.787C764.844 497.832 765.484 498.741 766.38 499.337C767.276 499.933 768.362 500.173 769.425 500.01L814.93 492.693C815.533 492.596 816.109 492.371 816.618 492.033C817.127 491.695 817.558 491.252 817.882 490.734C818.206 490.215 818.415 489.633 818.496 489.027C818.576 488.421 818.526 487.805 818.348 487.22L759.013 291.506C758.844 290.95 758.824 290.359 758.955 289.793L760.93 281.226C761.147 280.297 761.047 279.322 760.645 278.457C760.244 277.592 759.565 276.887 758.716 276.453C750.636 272.328 730.171 263.753 714.728 273.146C714.226 273.452 713.792 273.857 713.452 274.336C713.112 274.815 712.873 275.358 712.749 275.932L666.397 493.892C666.271 494.484 666.272 495.097 666.4 495.689C666.528 496.282 666.78 496.84 667.14 497.327C667.499 497.815 667.958 498.221 668.486 498.517C669.014 498.814 669.599 498.996 670.203 499.05L726.109 504.059C726.236 504.07 726.363 504.076 726.49 504.076C727.513 504.074 728.503 503.706 729.279 503.039C730.055 502.371 730.567 501.447 730.722 500.435L730.725 500.436Z" fill="#9B6627"/>
<path d="M766.683 164.369C764.921 163.309 763.358 161.949 762.063 160.352C761.424 159.545 761.003 158.586 760.842 157.569C760.68 156.552 760.783 155.511 761.14 154.545C762.321 151.939 765.829 151.118 768.549 152.003C771.268 152.887 773.368 155.022 775.354 157.079C777.104 158.888 778.904 160.784 779.731 163.163C780.558 165.542 780.135 168.558 778.07 170.002C776.043 171.419 773.13 170.839 771.181 169.318C769.341 167.655 767.874 165.621 766.876 163.349L766.683 164.369Z" fill="#483A2A"/>
<path d="M774.598 157.707C774.727 151.12 782.233 146.396 788.715 147.564C795.198 148.732 800.18 154.26 802.674 160.358C807.943 173.243 803.988 187.944 798.911 200.91C793.833 213.876 787.55 227.029 788.291 240.931C788.792 248.445 791.313 255.684 795.586 261.883C799.859 268.083 805.726 273.012 812.568 276.152C805.253 279.469 796.509 276.043 790.361 270.871C776.709 259.386 771.44 238.938 777.839 222.281C780.995 214.065 786.557 207.036 790.9 199.382C795.243 191.728 798.429 182.706 796.186 174.195C793.944 165.684 784.402 158.794 776.245 162.087L774.598 157.707Z" fill="#483A2A"/>
<path d="M749.785 191.262C751.822 187.818 753.877 183.297 750.154 180.286C749.345 179.661 748.418 179.204 747.43 178.943C746.441 178.681 745.41 178.62 744.398 178.763C740.2 179.269 735.628 179.478 731.564 177.952C730.04 177.427 728.637 176.601 727.438 175.523C726.239 174.446 725.269 173.138 724.585 171.678C722.492 166.705 725.114 160.662 729.499 157.519C732.182 155.666 735.353 154.646 738.612 154.589C741.872 154.531 745.076 155.437 747.823 157.194C753.504 154.684 760.395 155.801 765.556 159.256C770.717 162.712 774.248 168.245 776.166 174.154C777.933 179.239 778.238 184.719 777.044 189.97C776.084 193.622 774.259 196.989 771.722 199.786C769.185 202.583 766.012 204.727 762.471 206.037C761.092 206.581 759.594 206.753 758.128 206.536C756.661 206.319 755.278 205.72 754.115 204.799C752.226 203.104 750.775 200.977 749.887 198.599C749.111 195.993 748.698 193.102 749.785 191.262Z" fill="black"/>
<path d="M680.458 212.124C680.574 212.638 680.65 213.16 680.685 213.686L721.558 237.276L731.493 231.554L742.084 245.425L725.48 257.265C724.139 258.222 722.523 258.718 720.876 258.677C719.229 258.637 717.639 258.063 716.346 257.042L674.195 223.777C672.292 224.482 670.22 224.591 668.254 224.089C666.288 223.587 664.522 222.498 663.189 220.967C661.857 219.436 661.022 217.535 660.796 215.518C660.57 213.501 660.963 211.462 661.924 209.674C662.884 207.886 664.366 206.432 666.172 205.507C667.978 204.582 670.023 204.229 672.034 204.495C674.046 204.761 675.928 205.634 677.432 206.997C678.936 208.359 679.989 210.148 680.452 212.124L680.458 212.124Z" fill="#FFB8B8"/>
<path d="M722.926 238.393L736.136 255.522C736.512 256.009 736.988 256.409 737.532 256.695C738.077 256.981 738.676 257.147 739.29 257.18C739.904 257.214 740.518 257.115 741.09 256.89C741.662 256.665 742.179 256.32 742.606 255.877L757.561 240.341C758.819 239.41 759.881 238.24 760.686 236.897C761.491 235.555 762.023 234.067 762.252 232.518C762.482 230.97 762.403 229.391 762.021 227.873C761.64 226.355 760.962 224.927 760.028 223.671C759.094 222.415 757.921 221.356 756.577 220.555C755.233 219.753 753.744 219.225 752.196 219C750.648 218.775 749.07 218.858 747.553 219.244C746.037 219.63 744.612 220.312 743.359 221.25C743.23 221.346 743.103 221.445 742.977 221.546L724.221 232.038C723.685 232.339 723.219 232.752 722.856 233.249C722.493 233.746 722.241 234.315 722.118 234.918C721.994 235.521 722.002 236.144 722.141 236.744C722.28 237.343 722.547 237.906 722.923 238.393H722.926Z" fill="#CBCBCB"/>
<path d="M218.138 511.505L230.818 511.504L236.851 462.571L218.136 462.572L218.138 511.505Z" fill="#A0616A"/>
<path d="M214.903 507.362L239.876 507.361H239.877C244.098 507.362 248.145 509.039 251.13 512.025C254.114 515.011 255.791 519.06 255.791 523.283V523.8L214.904 523.802L214.903 507.362Z" fill="#483A2A"/>
<path d="M119.403 506.013L131.941 507.909L145.217 460.428L128.78 457.63L119.403 506.013Z" fill="#A0616A"/>
<path d="M116.823 501.434L141.515 505.167L141.516 505.168C145.69 505.799 149.441 508.063 151.946 511.462C154.451 514.86 155.504 519.115 154.873 523.29L154.796 523.802L114.368 517.688L116.823 501.434Z" fill="#483A2A"/>
<path d="M158.5 269.006L172.58 272.697L171.643 295.534L171.527 337.113C172.914 338.073 173.977 339.431 174.576 341.009C175.174 342.586 175.28 344.308 174.879 345.947C174.478 347.586 173.589 349.064 172.33 350.187C171.071 351.31 169.501 352.023 167.828 352.234C166.154 352.444 164.456 352.141 162.959 351.365C161.461 350.589 160.234 349.377 159.44 347.888C158.647 346.399 158.323 344.704 158.513 343.028C158.703 341.351 159.397 339.772 160.504 338.498L156.177 296.767L158.5 269.006Z" fill="#A0616A"/>
<path d="M156.049 242.848C156.127 240.641 156.838 238.503 158.098 236.69C159.358 234.877 161.114 233.465 163.154 232.623C165.065 231.768 167.183 231.489 169.249 231.822C171.315 232.154 173.24 233.083 174.786 234.494C175.897 235.488 176.778 236.712 177.368 238.081C177.958 239.45 178.242 240.931 178.201 242.421C178.238 255.799 175.219 275.299 175.188 275.494L175.14 275.805L154.561 282.738L156.049 242.848Z" fill="#CBCBCB"/>
<path d="M192.847 280.825L224.323 272.673L238.874 321.698L239.391 504.337L215.32 504.186L205.258 356.364L141.131 492.954L115.273 489.85L171.643 343.429C171.643 343.429 168.54 317.559 178.366 304.625L176.298 291.173L192.847 280.825Z" fill="#9B6627"/>
<path d="M171.622 293.022C171.182 292.487 170.863 291.863 170.685 291.194C170.507 290.524 170.476 289.824 170.593 289.141L156.236 246.048C155.565 244.033 155.494 241.868 156.031 239.813C156.567 237.759 157.688 235.905 159.258 234.476L165.491 228.808L169.715 211.905L193.992 217.842L191.991 225.846L202.979 223.849L226.12 275.414L177.748 294.757L175.366 294.795C174.649 294.796 173.942 294.637 173.294 294.331C172.647 294.024 172.075 293.577 171.622 293.022V293.022Z" fill="#CBCBCB"/>
<path d="M205.318 256.638L219.189 252.228L230.599 272.029L252.717 307.232C254.402 307.301 256.026 307.881 257.375 308.894C258.724 309.907 259.733 311.306 260.27 312.905C260.807 314.505 260.845 316.23 260.381 317.852C259.917 319.474 258.971 320.917 257.669 321.989C256.367 323.062 254.77 323.714 253.09 323.859C251.41 324.004 249.725 323.636 248.259 322.802C246.792 321.968 245.614 320.709 244.878 319.19C244.143 317.672 243.886 315.966 244.141 314.298L218.187 281.342L205.318 256.638Z" fill="#A0616A"/>
<path d="M189.271 235.84C188.157 233.934 187.616 231.747 187.712 229.54C187.808 227.334 188.537 225.203 189.812 223.4C190.97 221.656 192.612 220.288 194.536 219.465C196.459 218.641 198.582 218.396 200.642 218.762C202.112 219.007 203.511 219.57 204.741 220.411C205.97 221.253 207.002 222.353 207.764 223.634C214.943 234.921 222.81 253.016 222.889 253.197L223.013 253.485L209.325 270.35L189.271 235.84Z" fill="#CBCBCB"/>
<path d="M187.676 208.76C198.329 208.76 206.965 200.12 206.965 189.462C206.965 178.805 198.329 170.165 187.676 170.165C177.024 170.165 168.388 178.805 168.388 189.462C168.388 200.12 177.024 208.76 187.676 208.76Z" fill="#A0616A"/>
<path d="M153.589 181.323C163.85 181.323 172.169 173 172.169 162.734C172.169 152.468 163.85 144.146 153.589 144.146C143.327 144.146 135.009 152.468 135.009 162.734C135.009 173 143.327 181.323 153.589 181.323Z" fill="#483A2A"/>
<path d="M137.563 178.126C139.967 179.865 142.753 181.003 145.688 181.444C148.622 181.884 151.619 181.616 154.429 180.66C157.238 179.705 159.777 178.09 161.835 175.951C163.893 173.812 165.408 171.211 166.255 168.366C165.935 170.916 165.089 173.371 163.772 175.577C162.456 177.784 160.696 179.693 158.604 181.184C156.512 182.676 154.134 183.717 151.62 184.243C149.106 184.769 146.51 184.767 143.997 184.239C141.483 183.71 139.106 182.666 137.016 181.172C134.926 179.678 133.169 177.766 131.855 175.558C130.54 173.351 129.698 170.894 129.381 168.344C129.063 165.794 129.278 163.206 130.01 160.743C129.594 164.052 130.076 167.412 131.404 170.471C132.733 173.529 134.86 176.174 137.563 178.126Z" fill="#483A2A"/>
<path d="M210.888 178.147C207.644 172.338 206.403 169.911 202.221 166.378C198.522 163.254 193.973 162.336 190.304 165.297C185.963 163.42 181.134 162.995 176.532 164.083C171.93 165.172 167.803 167.717 164.762 171.339C161.721 174.962 159.929 179.469 159.652 184.191C159.376 188.914 160.629 193.6 163.226 197.553C165.824 201.506 169.626 204.515 174.069 206.134C178.512 207.753 183.359 207.894 187.889 206.538C192.419 205.182 196.391 202.4 199.214 198.605C202.038 194.811 203.563 190.206 203.563 185.476C203.559 184.645 203.509 183.815 203.413 182.99C206.602 182.542 207.698 178.595 210.888 178.147Z" fill="black"/>
<path d="M399.558 524H1.04596C0.768557 524 0.502511 523.89 0.306355 523.693C0.110199 523.497 0 523.231 0 522.954C0 522.676 0.110199 522.41 0.306355 522.214C0.502511 522.017 0.768557 521.907 1.04596 521.907H399.558C399.836 521.907 400.102 522.017 400.298 522.214C400.494 522.41 400.604 522.676 400.604 522.954C400.604 523.231 400.494 523.497 400.298 523.693C400.102 523.89 399.836 524 399.558 524Z" fill="#CBCBCB"/>
<path d="M931.954 524H533.442C533.164 524 532.898 523.89 532.702 523.693C532.506 523.497 532.396 523.231 532.396 522.954C532.396 522.676 532.506 522.41 532.702 522.214C532.898 522.017 533.164 521.907 533.442 521.907H931.954C932.231 521.907 932.498 522.017 932.694 522.214C932.89 522.41 933 522.676 933 522.954C933 523.231 932.89 523.497 932.694 523.693C932.498 523.89 932.231 524 931.954 524Z" fill="#CBCBCB"/>
<path d="M412.421 20.667H410.329V337.775H412.421V20.667Z" fill="#CBCBCB"/>
<g filter="url(#filter0_dd)">
<path d="M180.52 38.36C175.8 50.12 167.96 61.56 159.24 68.76C160.92 69.64 163.64 71.88 164.92 73C173.4 65.16 181.64 53 187 40.2L180.52 38.36ZM203.8 82.2C207.56 86.68 211.64 92.12 215.24 97.32C203.16 97.88 190.84 98.44 180.04 98.84C185.32 89.4 191.08 76.92 195.4 66.6L188.52 64.92C185.08 75.24 178.76 89.4 173.4 99.16C169.4 99.24 165.72 99.4 162.44 99.48L163.24 105.72C177.48 105 198.76 104.04 218.92 102.84C220.44 105.24 221.8 107.56 222.84 109.48L228.68 106.2C224.76 99.08 216.6 87.96 209.32 79.64L203.8 82.2ZM203 40.76C209.08 51.96 219.08 65.32 226.44 73C227.64 71.4 229.8 69.08 231.4 67.96C224.12 61.24 214.12 48.76 208.76 38.36L203 40.76Z" fill="#52FF00"/>
<path d="M265.72 44.04V50.52H248.2V44.04H265.72ZM248.2 61.64V54.76H265.72V61.64H248.2ZM271.32 66.2V39.48H242.36V109.16H248.2V66.2H271.32ZM269.08 84.76V76.12H280.28V84.76H269.08ZM296.44 89.8V84.76H285.56V76.12H294.68V71.24H255.24V76.12H263.88V84.76H253.72V89.8H263.72C263.24 94.44 261 101.08 254.28 105.16C255.56 105.96 257.32 107.64 258.2 108.68C265.88 103.48 268.44 95.16 268.92 89.8H280.28V107.64H285.56V89.8H296.44ZM284.04 61.72V54.76H302.2V61.72H284.04ZM302.2 44.04V50.52H284.04V44.04H302.2ZM308.04 39.48H278.36V66.28H302.2V101.32C302.2 102.6 301.8 103.08 300.52 103.08C299.32 103.16 295 103.16 290.6 103C291.48 104.6 292.36 107.4 292.52 108.92C298.52 109 302.52 108.84 304.92 107.88C307.24 106.84 308.04 104.92 308.04 101.4V39.48Z" fill="#FF0000"/>
<path d="M391.8 46.84C390.2 43.96 386.68 39.64 383.56 36.68L379.4 38.84C382.44 41.96 385.88 46.44 387.48 49.4L391.8 46.84ZM344.2 38.84H322.28V43.64H344.2V38.84ZM339.4 86.28V99.72H326.84V86.28H339.4ZM344.52 81.4H321.8V108.2H326.84V104.52H344.52V81.4ZM321.88 75.48H344.6V70.68H321.88V75.48ZM321.88 64.84H344.6V60.12H321.88V64.84ZM318.36 54.2H346.52V49.32H318.36V54.2ZM362.36 95.32V73.64H370.52V68.52H348.44V73.64H356.92V96.44C353.16 97.24 349.72 97.88 346.92 98.44L348.28 103.88C355.16 102.28 364.2 100.28 372.76 98.2L372.44 93.24L362.36 95.32ZM390.84 57.32V51.96H378.36C378.28 46.92 378.28 41.64 378.36 36.12H372.6C372.68 41.64 372.68 46.92 372.76 51.96H347.8V57.32H372.92C373.64 88.84 376.04 108.84 385.8 109.16C388.44 109.24 391.32 106.28 392.76 94.68C391.88 94.12 389.4 92.6 388.36 91.32C388.04 97.8 387.16 101.88 385.88 101.8C381.16 101.48 378.92 83.88 378.44 57.32H390.84Z" fill="#B97715"/>
</g>
<g filter="url(#filter1_d)">
<path d="M530.78 47.6C535.46 54.62 539.96 63.98 541.22 70.1H509.36L515.3 67.58C513.5 62 509 54.44 503.96 48.5C513.5 47.96 523.22 47.42 532.94 46.88L530.78 47.6ZM482.36 80.9H533.48L528.26 86.48C537.8 90.62 549.32 97.46 554.9 102.32L561.92 94.22C556.88 89.9 547.34 84.86 538.88 80.9H607.1V102.5H620.06V70.1H587.66C592.88 63.62 598.46 55.88 603.32 48.5L590.72 43.64C586.76 51.38 579.56 62.72 574.16 70.1H541.76L552.92 66.14C551.48 60.56 547.7 52.64 543.2 45.98C568.58 44.18 592.7 41.3 611.06 37.7L602.24 28.34C573.26 34.1 519.44 37.88 475.52 39.14C476.78 41.66 478.04 46.34 478.4 49.4C484.34 49.22 490.46 49.04 496.76 48.68L491.54 50.84C496.04 56.6 500.9 64.34 503.06 70.1H469.94V101.24H482.36V80.9ZM578.48 95.66C588.92 103.94 600.8 116.18 606.2 124.28L615.74 116.9C610.34 108.8 598.1 97.28 587.66 89.36L578.48 95.66ZM483.62 126.44C495.68 119.42 502.34 107.54 506.48 95.84L496.4 91.52C492.44 102.32 485.24 112.94 474.44 118.7L483.62 126.44ZM573.8 144.44C566.42 152 556.7 158.3 545.36 163.34C533.48 158.12 523.58 151.82 516.02 144.44H573.8ZM585.14 134L582.98 134.54H527C530.78 131.12 534.02 127.52 537.08 123.74L533.84 122.66H563C574.7 122.66 578.12 119.24 579.38 104.66C575.96 103.94 571.28 102.68 568.76 100.88C568.04 111.5 566.96 112.76 561.38 112.76H535.1C527.54 112.76 526.28 112.04 526.28 108.44V91.34H513.86V108.62C513.86 116.9 516.02 120.68 523.58 121.94C510.44 137.06 488.84 149.84 467.78 157.94C470.3 160.1 475.16 164.42 477.14 166.76C486.86 162.44 497.12 156.86 506.66 150.56C513.5 157.58 521.78 163.7 531.14 168.92C511.52 175.58 488.66 179.72 465.26 181.88C467.78 184.58 471.02 189.98 472.28 193.04C498.02 189.8 523.58 184.58 545.18 175.76C566.24 184.58 591.44 190.16 617.9 192.86C619.7 189.44 622.76 183.86 625.64 181.16C601.7 179.36 579.02 175.22 559.76 168.92C573.8 161.36 585.32 151.64 593.6 139.58L585.14 134Z" fill="#C40F0F"/>
</g>
<g filter="url(#filter2_d)">
<path d="M341.8 166.6H315.95V170.45H341.8V166.6ZM311.3 158.3C308.45 166.1 303.6 173.7 298.45 178.6C299.2 179.5 300.35 181.4 300.75 182.25C302.5 180.45 304.3 178.4 305.95 176.1V203.75H309.6V170.45C311.65 166.95 313.45 163.2 314.95 159.45L311.3 158.3ZM313.15 196.35V200.2H343.95V196.35H313.15Z" fill="#19BB46"/>
<path d="M393.6 175.4H373.3V172.2H388.85V169.4H373.3V166.35H391.5V163.45H381.2C382.1 162.2 383.2 160.6 384.2 159.1L380.25 158.05C379.6 159.6 378.35 161.9 377.4 163.45H365.45L365.8 163.3C365.2 161.8 363.75 159.7 362.3 158.2L359.1 159.3C360.1 160.55 361.15 162.1 361.85 163.45H351.6V166.35H369.55V169.4H354.25V172.2H369.55V175.4H349.45V178.35H393.6V175.4ZM390.9 183.45C389.15 181.95 385.65 180.1 382.8 179.05L380.8 181.25C383.65 182.45 387.1 184.4 388.75 185.9L390.9 183.45ZM386.65 189.95C385.3 191.7 383.45 193.3 381.35 194.7C380.4 193.15 379.55 191.35 378.85 189.3H393.75V186.4H378.05C377.55 184.15 377.2 181.7 377.1 179.1H373.5C373.65 181.65 373.95 184.1 374.45 186.4H363.55V182.55C366.55 182.2 369.35 181.7 371.65 181.15L369.4 178.8C364.95 179.95 356.8 180.85 350 181.25C350.35 181.9 350.75 182.95 350.85 183.7C353.75 183.55 356.9 183.3 360 183V186.4H349.4V189.3H360V192.95C355.9 193.25 352.15 193.5 349.2 193.7L349.55 196.7L360 195.75V200.05C360 200.75 359.75 200.9 359 200.9C358.25 200.95 355.65 200.95 352.95 200.85C353.35 201.7 353.9 202.95 354.1 203.8C357.85 203.8 360.2 203.8 361.65 203.3C363.05 202.9 363.55 202.05 363.55 200.15V195.45C366.5 195.15 369.5 194.9 372.5 194.6V191.95L363.55 192.65V189.3H375.2C376 192 377.05 194.4 378.3 196.45C374.85 198.25 370.9 199.7 367 200.7C367.6 201.4 368.55 202.95 368.95 203.65C372.75 202.45 376.6 200.9 380.1 199C382.7 202.05 385.85 203.8 389.4 203.8C392.55 203.75 393.85 202.4 394.4 197.1C393.45 196.85 392.3 196.25 391.55 195.65C391.3 199.2 390.9 200.35 389.55 200.4C387.3 200.45 385.1 199.25 383.15 197.15C385.8 195.4 388.1 193.35 389.85 191.05L386.65 189.95Z" fill="#FFE604"/>
</g>
<g filter="url(#filter3_d)">
<path d="M321.25 241.5C319.85 240.5 314.1 237 312.15 235.95C312.25 235.65 312.35 235.4 312.4 235.1H321.65V232.05H312.95C313.05 231.4 313.05 230.85 313.05 230.25V227.35H320.4V224.35H306.8C307.3 223.15 307.8 221.95 308.15 220.7L304.8 220.05C303.65 223.8 301.7 227.55 299.15 230C300 230.4 301.45 231.3 302.15 231.8C303.25 230.6 304.35 229.05 305.3 227.35H309.5V230.25C309.5 230.85 309.5 231.4 309.4 232.05H299.15V235.1H308.75C307.7 238.15 305.05 241.45 298.7 243.95C299.55 244.5 300.6 245.7 301.05 246.5C306.3 244.1 309.3 241.3 311 238.45C313.5 240.15 317.2 242.8 318.65 244.05L321.25 241.5ZM333.15 248.4V253.1H310.05V248.4H333.15ZM310.05 260.95V256H333.15V260.95H310.05ZM306.4 265.85H310.05V264H333.15V265.75H336.9V245.35H306.4V265.85ZM337.5 238.15H327.2V227.55H337.5V238.15ZM323.7 224.2V241.55H341.15V224.2H323.7Z" fill="black"/>
<path d="M389.7 222.55H366.8V225.6H389.7V222.55ZM360.45 220.3C357.55 227.85 352.7 235.25 347.65 240C348.3 240.85 349.4 242.8 349.75 243.6C351.65 241.7 353.5 239.5 355.3 237V265.65H358.8V231.65C360.75 228.4 362.5 224.85 363.9 221.35L360.45 220.3ZM387.35 253.05V260.4H369.25V253.05H387.35ZM365.65 265.8H369.25V263.45H387.35V265.65H391.05V250.05H365.65V265.8ZM366.2 246.2H390.5V243.2H366.2V246.2ZM390.6 236.3H366.2V239.35H390.6V236.3ZM362.1 229.4V232.5H394.4V229.4H362.1Z" fill="#693A02"/>
</g>
<g filter="url(#filter4_d)">
<path d="M456.881 230.3H464.781V226.85H450.531C451.131 224.95 451.681 222.95 452.081 220.85L448.481 220.15C447.281 226.2 445.231 232.15 442.281 236C443.131 236.5 444.681 237.5 445.331 238.15C446.881 236 448.181 233.3 449.381 230.3H453.181V238.5C453.181 239.05 453.181 239.65 453.181 240.25H442.881V243.8H452.931C452.281 250.35 449.931 257.55 442.331 262.95C443.131 263.5 444.431 264.9 444.931 265.7C450.631 261.65 453.681 256.25 455.281 250.95C457.981 254 461.881 258.7 463.581 261.15L466.081 258C464.531 256.25 458.481 249.5 456.131 247.15C456.331 246.05 456.531 244.9 456.631 243.8H466.231V240.25H456.831C456.881 239.65 456.881 239.05 456.881 238.55V230.3ZM471.431 256.95V228H481.981V256.95H471.431ZM467.831 224.5V264.4H471.431V260.45H481.981V263.9H485.681V224.5H467.831ZM536.631 223.2H512.231V226.7H536.631V223.2ZM503.881 220.15C501.381 223.7 496.581 228.2 492.431 231C493.081 231.7 494.081 233.15 494.631 233.95C499.081 230.8 504.181 225.95 507.431 221.55L503.881 220.15ZM505.931 230.8C502.481 236.45 497.081 242.2 491.931 245.85C492.681 246.6 493.981 248.2 494.531 248.95C496.381 247.5 498.281 245.7 500.181 243.75V265.95H503.881V239.65C505.931 237.2 507.831 234.65 509.381 232.1L505.931 230.8ZM538.081 236.85H510.081V240.4H526.781V261C526.781 261.85 526.481 262.05 525.531 262.1C524.581 262.15 521.281 262.15 517.731 262.05C518.281 263.1 518.781 264.65 518.931 265.65C523.831 265.65 526.631 265.65 528.331 265.1C529.981 264.5 530.531 263.35 530.531 261.05V240.4H538.081V236.85Z" fill="#CB0E0E"/>
<path d="M544.07 244.202C544.07 243.421 544.298 242.77 544.754 242.249C545.226 241.728 545.926 241.468 546.854 241.468C547.781 241.468 548.481 241.728 548.953 242.249C549.441 242.77 549.686 243.421 549.686 244.202C549.686 244.967 549.441 245.61 548.953 246.131C548.481 246.635 547.781 246.888 546.854 246.888C545.926 246.888 545.226 246.635 544.754 246.131C544.298 245.61 544.07 244.967 544.07 244.202Z" fill="#693A02"/>
<path d="M599.069 243.25V239.45H580.069C580.119 238.5 580.119 237.55 580.119 236.65V227.8H600.319V224H556.669V227.8H576.219V236.6C576.219 237.55 576.219 238.5 576.119 239.45H558.219V243.25H575.719C574.369 250.5 569.919 257.85 555.719 262.7C556.519 263.4 557.619 265 557.969 265.9C571.319 261.3 576.719 254.4 578.819 247.2C582.619 256.7 588.869 263 599.069 265.9C599.619 264.85 600.719 263.25 601.619 262.45C590.869 259.8 584.469 253.1 581.219 243.25H599.069ZM625.969 221.7C625.619 228.3 625.619 252.15 605.369 262.5C606.519 263.25 607.719 264.45 608.369 265.35C621.019 258.5 626.169 246.45 628.369 236.45C630.769 246.45 636.269 259.25 649.169 265.35C649.719 264.35 650.869 263.1 651.919 262.3C633.119 253.7 630.419 230.6 629.969 224C630.019 223.15 630.019 222.35 630.069 221.7H625.969Z" fill="#1202C6"/>
</g>
</g>
<defs>
<filter id="filter0_dd" x="155.24" y="36.12" width="241.52" height="81.36" filterUnits="userSpaceOnUse" color-interpolation-filters="sRGB">
<feFlood flood-opacity="0" result="BackgroundImageFix"/>
<feColorMatrix in="SourceAlpha" type="matrix" values="0 0 0 0 0 0 0 0 0 0 0 0 0 0 0 0 0 0 127 0"/>
<feOffset dy="4"/>
<feGaussianBlur stdDeviation="2"/>
<feColorMatrix type="matrix" values="0 0 0 0 0 0 0 0 0 0 0 0 0 0 0 0 0 0 0.25 0"/>
<feBlend mode="normal" in2="BackgroundImageFix" result="effect1_dropShadow"/>
<feColorMatrix in="SourceAlpha" type="matrix" values="0 0 0 0 0 0 0 0 0 0 0 0 0 0 0 0 0 0 127 0"/>
<feOffset dy="4"/>
<feGaussianBlur stdDeviation="2"/>
<feColorMatrix type="matrix" values="0 0 0 0 0 0 0 0 0 0 0 0 0 0 0 0 0 0 0.25 0"/>
<feBlend mode="normal" in2="effect1_dropShadow" result="effect2_dropShadow"/>
<feBlend mode="normal" in="SourceGraphic" in2="effect2_dropShadow" result="shape"/>
</filter>
<filter id="filter1_d" x="461.26" y="28.34" width="168.38" height="172.7" filterUnits="userSpaceOnUse" color-interpolation-filters="sRGB">
<feFlood flood-opacity="0" result="BackgroundImageFix"/>
<feColorMatrix in="SourceAlpha" type="matrix" values="0 0 0 0 0 0 0 0 0 0 0 0 0 0 0 0 0 0 127 0"/>
<feOffset dy="4"/>
<feGaussianBlur stdDeviation="2"/>
<feColorMatrix type="matrix" values="0 0 0 0 0 0 0 0 0 0 0 0 0 0 0 0 0 0 0.25 0"/>
<feBlend mode="normal" in2="BackgroundImageFix" result="effect1_dropShadow"/>
<feBlend mode="normal" in="SourceGraphic" in2="effect1_dropShadow" result="shape"/>
</filter>
<filter id="filter2_d" x="294.45" y="158.05" width="103.95" height="53.75" filterUnits="userSpaceOnUse" color-interpolation-filters="sRGB">
<feFlood flood-opacity="0" result="BackgroundImageFix"/>
<feColorMatrix in="SourceAlpha" type="matrix" values="0 0 0 0 0 0 0 0 0 0 0 0 0 0 0 0 0 0 127 0"/>
<feOffset dy="4"/>
<feGaussianBlur stdDeviation="2"/>
<feColorMatrix type="matrix" values="0 0 0 0 0 0 0 0 0 0 0 0 0 0 0 0 0 0 0.25 0"/>
<feBlend mode="normal" in2="BackgroundImageFix" result="effect1_dropShadow"/>
<feBlend mode="normal" in="SourceGraphic" in2="effect1_dropShadow" result="shape"/>
</filter>
<filter id="filter3_d" x="294.7" y="220.05" width="103.7" height="53.8" filterUnits="userSpaceOnUse" color-interpolation-filters="sRGB">
<feFlood flood-opacity="0" result="BackgroundImageFix"/>
<feColorMatrix in="SourceAlpha" type="matrix" values="0 0 0 0 0 0 0 0 0 0 0 0 0 0 0 0 0 0 127 0"/>
<feOffset dy="4"/>
<feGaussianBlur stdDeviation="2"/>
<feColorMatrix type="matrix" values="0 0 0 0 0 0 0 0 0 0 0 0 0 0 0 0 0 0 0.25 0"/>
<feBlend mode="normal" in2="BackgroundImageFix" result="effect1_dropShadow"/>
<feBlend mode="normal" in="SourceGraphic" in2="effect1_dropShadow" result="shape"/>
</filter>
<filter id="filter4_d" x="438.281" y="220.15" width="217.637" height="53.8" filterUnits="userSpaceOnUse" color-interpolation-filters="sRGB">
<feFlood flood-opacity="0" result="BackgroundImageFix"/>
<feColorMatrix in="SourceAlpha" type="matrix" values="0 0 0 0 0 0 0 0 0 0 0 0 0 0 0 0 0 0 127 0"/>
<feOffset dy="4"/>
<feGaussianBlur stdDeviation="2"/>
<feColorMatrix type="matrix" values="0 0 0 0 0 0 0 0 0 0 0 0 0 0 0 0 0 0 0.25 0"/>
<feBlend mode="normal" in2="BackgroundImageFix" result="effect1_dropShadow"/>
<feBlend mode="normal" in="SourceGraphic" in2="effect1_dropShadow" result="shape"/>
</filter>
<clipPath id="clip0">
<rect width="933" height="524" fill="white"/>
</clipPath>
</defs>
</svg>
